<?xml version="1.0" encoding="utf-8"?>
<!-- Uploaded to: SVG Repo, www.svgrepo.com, Generator: SVG Repo Mixer Tools -->
<svg width="800px" height="800px" viewBox="0 0 1024 1024" class="icon"  version="1.1" xmlns="http://www.w3.org/2000/svg"><path d="M667.2 348.8c-4.8 41.6-3.2 76.8 1.6 102.4 1.6 8-28.8 16-32 6.4-6.4-30.4-8-67.2-1.6-113.6 6.4-60.8 32-115.2 67.2-160 12.8-16 24-28.8 35.2-38.4 4.8-3.2 8-6.4 11.2-8 1.6 0 1.6-1.6 3.2-1.6 3.2-1.6 1.6-1.6 11.2-1.6 11.2 9.6 11.2 9.6 12.8 20.8-1.6 4.8-1.6 4.8-3.2 4.8 0 1.6-1.6 1.6-3.2 3.2-3.2 3.2-12.8 24-20.8 46.4-9.6 28.8-16 56-16 78.4 0 17.6 3.2 48 11.2 89.6l4.8 24c1.6 6.4 1.6 12.8 3.2 20.8 0 1.6 3.2 16 3.2 19.2 1.6 8-30.4 14.4-32 6.4 0-4.8-3.2-19.2-3.2-19.2-1.6-8-3.2-14.4-3.2-20.8-1.6-9.6-3.2-17.6-4.8-24-8-43.2-11.2-75.2-11.2-96 0-17.6 3.2-38.4 9.6-59.2-22.4 35.2-38.4 76.8-43.2 120zM436.8 286.4c0 17.6 0 33.6-1.6 51.2 0 3.2-1.6 14.4-1.6 16v12.8c0 9.6-8 16-16 16s-16-8-16-16c0-3.2 0-8 1.6-14.4 0-3.2 1.6-14.4 1.6-16 1.6-17.6 1.6-32 1.6-49.6 0-14.4-3.2-33.6-8-60.8-1.6-8-3.2-17.6-6.4-27.2-3.2-11.2-16-59.2-16-64 0-8 1.6-9.6 16-16 8 3.2 8 3.2 9.6 4.8 1.6 1.6 3.2 1.6 4.8 3.2 1.6 1.6 4.8 4.8 8 9.6 6.4 9.6 14.4 20.8 22.4 33.6 20.8 35.2 36.8 72 44.8 105.6 9.6 46.4 8 86.4-6.4 121.6-3.2 8-12.8 12.8-20.8 8-8-3.2-12.8-12.8-8-20.8 11.2-27.2 12.8-62.4 4.8-102.4-4.8-17.6-11.2-36.8-20.8-57.6 4.8 27.2 6.4 46.4 6.4 62.4z" fill="#050D42" /><path d="M561.6 536c20.8-49.6 59.2-76.8 116.8-81.6 4.8-184-14.4-334.4-86.4-350.4-72-14.4-134.4 102.4-152 280-1.6 17.6 51.2 48 60.8 54.4 6.4 8 27.2 40 60.8 97.6z" fill="#2F4BFF" /><path d="M270.4 475.2c-1.6 1.6-4.8 1.6-6.4 3.2-3.2 1.6-4.8 1.6-8 4.8-1.6 0-6.4 3.2-6.4 4.8-9.6 4.8-16 8-25.6 1.6-20.8-12.8 11.2-73.6 38.4-88 11.2-6.4 17.6-8 36.8-11.2 11.2-1.6 16-3.2 20.8-6.4 3.2-1.6 8-6.4 11.2-11.2 1.6-1.6 3.2-3.2 4.8-6.4 0-1.6 3.2-4.8 4.8-6.4 4.8-6.4 8-9.6 11.2-12.8 20.8-11.2 92.8 8 139.2 48 16 14.4 32 32 46.4 51.2 12.8 17.6 24 36.8 35.2 56 9.6-12.8 20.8-28.8 35.2-46.4 16-20.8 161.6-32 177.6-25.6 12.8 4.8 20.8 28.8 24 62.4 1.6 16-4.8 52.8-16 97.6-4.8 17.6-9.6 35.2-12.8 48-1.6 6.4-3.2 11.2-4.8 14.4-1.6 3.2-1.6 4.8-3.2 6.4-1.6 3.2-3.2 4.8-6.4 6.4-9.6 4.8-19.2 0-22.4-8 0-1.6-1.6-4.8-4.8-9.6 0 6.4-1.6 12.8-3.2 19.2-6.4 48-14.4 86.4-25.6 112-9.6 22.4-25.6 41.6-46.4 59.2-11.2 9.6-22.4 17.6-35.2 24-3.2 1.6-6.4 3.2-8 4.8 1.6 8 1.6 14.4 0 22.4-1.6 4.8-1.6 8-4.8 12.8-12.8 25.6-91.2 25.6-112 11.2-11.2-8-14.4-20.8-11.2-40 0-1.6 0-4.8 1.6-8 0-1.6 0-3.2 1.6-4.8-11.2-6.4-40-28.8-59.2-52.8-16-20.8-25.6-52.8-30.4-96-6.4-24-6.4-33.6-8-75.2v-11.2c-3.2-49.6-8-99.2-14.4-137.6-1.6-12.8-4.8-33.6-6.4-43.2-36.8 8-89.6 24-107.2 30.4z m470.4 120s0-1.6 0 0c0-1.6 0-1.6 0 0z m-27.2 9.6z m-156.8-80c-1.6 3.2-1.6 4.8-3.2 6.4 1.6-1.6 3.2-4.8 3.2-6.4 1.6-1.6 0 0 0 0z m-174.4-115.2h3.2c14.4 0 17.6 8 20.8 24 0-1.6 4.8 33.6 8 49.6 6.4 40 12.8 89.6 14.4 140.8v11.2c1.6 40 1.6 49.6 4.8 70.4 4.8 36.8 12.8 64 24 78.4 22.4 27.2 65.6 56 64 54.4 3.2 3.2 4.8 6.4 4.8 11.2 0 4.8 0 6.4-1.6 17.6 0 3.2 0 4.8-1.6 6.4v9.6c1.6 1.6 19.2 3.2 35.2 3.2 9.6 0 17.6-1.6 24-3.2 1.6 0 4.8-1.6 4.8-1.6v-3.2-14.4-3.2-4.8c0-8 1.6-14.4 9.6-17.6 0 0 3.2-1.6 4.8-3.2 3.2-1.6 6.4-3.2 11.2-6.4 11.2-6.4 20.8-12.8 30.4-20.8 17.6-14.4 30.4-28.8 36.8-46.4 9.6-22.4 17.6-57.6 22.4-104 3.2-28.8 6.4-64 6.4-68.8 0-1.6 0-1.6 1.6-6.4 4.8-6.4 4.8-6.4 12.8-9.6 11.2 1.6 11.2 1.6 12.8 4.8l3.2 3.2c1.6 1.6 1.6 3.2 3.2 6.4 3.2 4.8 6.4 11.2 9.6 17.6 1.6-8 4.8-17.6 6.4-27.2 9.6-40 16-75.2 16-88-1.6-12.8-3.2-24-4.8-32 0-1.6 0-1.6-1.6-3.2-20.8 0-132.8 9.6-137.6 14.4-6.4 9.6-19.2 25.6-28.8 38.4-4.8 8-9.6 14.4-12.8 19.2-1.6 1.6-1.6 3.2-3.2 4.8 0-1.6 0 0-3.2 4.8-9.6 8-9.6 8-19.2 6.4-6.4-3.2-6.4-3.2-8-4.8 0-1.6-1.6-1.6-1.6-3.2s-1.6-3.2-3.2-4.8c-6.4-11.2-6.4-11.2-9.6-17.6-11.2-19.2-22.4-36.8-33.6-52.8-14.4-19.2-27.2-35.2-41.6-46.4-20.8-19.2-46.4-32-72-38.4-9.6-3.2-17.6-4.8-25.6-4.8h-4.8s0 1.6-1.6 1.6c0 1.6-3.2 4.8-4.8 6.4-1.6 3.2-3.2 4.8-4.8 8-6.4 8-12.8 14.4-20.8 19.2-8 4.8-16 8-32 11.2-14.4 3.2-20.8 4.8-27.2 8-4.8 1.6-9.6 8-14.4 16 28.8-4.8 91.2-22.4 124.8-30.4z m204.8 126.4v-3.2 3.2z m-1.6 1.6z m185.6-76.8s1.6 0 0 0c1.6 0 1.6 0 0 0z m-3.2-3.2zM587.2 883.2z" fill="#050D42" /></svg>